<svg width="30" height="30" viewBox="0 0 30 30" fill="none" xmlns="http://www.w3.org/2000/svg">
<path d="M12.5 18.75L12.5 15" stroke="#DB0703" stroke-width="2" stroke-linecap="round"/>
<path d="M17.5 18.75L17.5 15" stroke="#DB0703" stroke-width="2" stroke-linecap="round"/>
<path d="M3.75 8.75H26.25V8.75C24.6063 8.75 23.7844 8.75 23.2312 9.20398C23.1299 9.28709 23.0371 9.37995 22.954 9.48121C22.5 10.0344 22.5 10.8563 22.5 12.5V21C22.5 22.8856 22.5 23.8284 21.9142 24.4142C21.3284 25 20.3856 25 18.5 25H11.5C9.61438 25 8.67157 25 8.08579 24.4142C7.5 23.8284 7.5 22.8856 7.5 21V12.5C7.5 10.8563 7.5 10.0344 7.04602 9.48121C6.96291 9.37995 6.87005 9.28709 6.76879 9.20398C6.21561 8.75 5.39374 8.75 3.75 8.75V8.75Z" stroke="#DB0703" stroke-width="2" stroke-linecap="round"/>
<path d="M12.5852 4.21324C12.7276 4.08034 13.0415 3.96291 13.4781 3.87915C13.9147 3.7954 14.4497 3.75 15 3.75C15.5503 3.75 16.0853 3.7954 16.5219 3.87915C16.9585 3.96291 17.2724 4.08034 17.4148 4.21324" stroke="#DB0703" stroke-width="2" stroke-linecap="round"/>
</svg>
