<svg width="20" height="20" viewBox="0 0 20 20" fill="none" xmlns="http://www.w3.org/2000/svg">
<path d="M12.5001 1.66663V9.99996C12.5001 10.9166 11.7501 11.6666 10.8334 11.6666H1.66675V4.99996C1.66675 3.15829 3.15841 1.66663 5.00008 1.66663H12.5001Z" stroke="#F5F5F5" stroke-width="1.5" stroke-linecap="round" stroke-linejoin="round"/>
<path d="M18.3334 11.6666V14.1666C18.3334 15.55 17.2167 16.6666 15.8334 16.6666H15.0001C15.0001 15.75 14.2501 15 13.3334 15C12.4167 15 11.6667 15.75 11.6667 16.6666H8.33341C8.33341 15.75 7.58341 15 6.66675 15C5.75008 15 5.00008 15.75 5.00008 16.6666H4.16675C2.78341 16.6666 1.66675 15.55 1.66675 14.1666V11.6666H10.8334C11.7501 11.6666 12.5001 10.9166 12.5001 9.99996V4.16663H14.0334C14.6334 4.16663 15.1834 4.49163 15.4834 5.0083L16.9084 7.49996H15.8334C15.3751 7.49996 15.0001 7.87496 15.0001 8.33329V10.8333C15.0001 11.2916 15.3751 11.6666 15.8334 11.6666H18.3334Z" stroke="#F5F5F5" stroke-width="1.5" stroke-linecap="round" stroke-linejoin="round"/>
<path d="M6.66667 18.3333C7.58714 18.3333 8.33333 17.5871 8.33333 16.6667C8.33333 15.7462 7.58714 15 6.66667 15C5.74619 15 5 15.7462 5 16.6667C5 17.5871 5.74619 18.3333 6.66667 18.3333Z" stroke="#F5F5F5" stroke-width="1.5" stroke-linecap="round" stroke-linejoin="round"/>
<path d="M13.3334 18.3333C14.2539 18.3333 15.0001 17.5871 15.0001 16.6667C15.0001 15.7462 14.2539 15 13.3334 15C12.4129 15 11.6667 15.7462 11.6667 16.6667C11.6667 17.5871 12.4129 18.3333 13.3334 18.3333Z" stroke="#F5F5F5" stroke-width="1.5" stroke-linecap="round" stroke-linejoin="round"/>
<path d="M18.3333 10V11.6667H15.8333C15.375 11.6667 15 11.2917 15 10.8333V8.33333C15 7.875 15.375 7.5 15.8333 7.5H16.9083L18.3333 10Z" stroke="#F5F5F5" stroke-width="1.5" stroke-linecap="round" stroke-linejoin="round"/>
</svg>
