<svg width="28" height="31" viewBox="0 0 28 31" fill="none" xmlns="http://www.w3.org/2000/svg">
<path d="M11.1022 2.74118C11.2731 2.52855 11.6498 2.34066 12.1737 2.20665C12.6976 2.07264 13.3396 2 14 2C14.6604 2 15.3024 2.07264 15.8263 2.20665C16.3502 2.34066 16.7269 2.52855 16.8978 2.74118" stroke="#DB0703" stroke-width="3" stroke-linecap="round"/>
<path d="M0 8H28H27.3333C25.4477 8 24.5049 8 23.9191 8.58579C23.3333 9.17157 23.3333 10.1144 23.3333 12V25C23.3333 26.8856 23.3333 27.8284 22.7475 28.4142C22.1618 29 21.219 29 19.3333 29H8.66666C6.78105 29 5.83824 29 5.25245 28.4142C4.66667 27.8284 4.66667 26.8856 4.66667 25V12C4.66667 10.1144 4.66667 9.17157 4.08088 8.58579C3.49509 8 2.55228 8 0.666666 8H0Z" stroke="#DB0703" stroke-width="3" stroke-linecap="round"/>
<path d="M17 21L17 16" stroke="#DB0703" stroke-width="3" stroke-linecap="round"/>
<path d="M11 21L11 16" stroke="#DB0703" stroke-width="3" stroke-linecap="round"/>
</svg>
