<svg width="45" height="60" viewBox="0 0 45 60" fill="none" xmlns="http://www.w3.org/2000/svg">
<g filter="url(#filter0_i_441_2042)">
<path d="M22.2682 59.7955C18.0257 59.7955 14.2473 59.0663 10.9329 57.608C7.63748 56.1307 5.03331 54.1042 3.12043 51.5284C1.22649 48.9337 0.251115 45.9413 0.194297 42.5511H12.5807C12.6564 43.9716 13.1204 45.2216 13.9727 46.3011C14.8439 47.3617 15.9992 48.1856 17.4386 48.7727C18.878 49.3598 20.4973 49.6534 22.2966 49.6534C24.1716 49.6534 25.8288 49.322 27.2682 48.6591C28.7076 47.9962 29.8344 47.0777 30.6488 45.9034C31.4632 44.7292 31.8704 43.375 31.8704 41.8409C31.8704 40.2879 31.4348 38.9148 30.5636 37.7216C29.7113 36.5095 28.4803 35.5625 26.8704 34.8807C25.2795 34.1989 23.3856 33.858 21.1886 33.858H15.7625V24.8239H21.1886C23.0447 24.8239 24.6829 24.5019 26.1034 23.858C27.5428 23.214 28.6602 22.3239 29.4557 21.1875C30.2511 20.0322 30.6488 18.6875 30.6488 17.1534C30.6488 15.6951 30.2985 14.4167 29.5977 13.3182C28.9159 12.2008 27.95 11.3295 26.7 10.7045C25.4689 10.0795 24.0295 9.76705 22.3818 9.76705C20.7151 9.76705 19.1905 10.0701 17.8079 10.6761C16.4254 11.2633 15.3174 12.1061 14.4841 13.2045C13.6507 14.303 13.2057 15.5909 13.1488 17.0682H1.35907C1.41589 13.7159 2.37233 10.7614 4.22839 8.20455C6.08445 5.64773 8.58445 3.64962 11.7284 2.21023C14.8913 0.751892 18.4613 0.0227251 22.4386 0.0227251C26.4538 0.0227251 29.967 0.751892 32.9784 2.21023C35.9898 3.66856 38.3288 5.63826 39.9954 8.11932C41.681 10.5814 42.5144 13.3466 42.4954 16.4148C42.5144 19.6723 41.5011 22.3902 39.4557 24.5682C37.4291 26.7462 34.7871 28.1288 31.5295 28.7159V29.1705C35.8098 29.7197 39.0674 31.2064 41.3023 33.6307C43.556 36.036 44.6735 39.0473 44.6545 42.6648C44.6735 45.9792 43.717 48.9242 41.7852 51.5C39.8723 54.0758 37.2303 56.1023 33.8591 57.5795C30.4879 59.0568 26.6242 59.7955 22.2682 59.7955Z" fill="#DB0703"/>
</g>
<defs>
<filter id="filter0_i_441_2042" x="0.194275" y="0.0229492" width="44.4886" height="63.7725" filterUnits="userSpaceOnUse" color-interpolation-filters="sRGB">
<feFlood flood-opacity="0" result="BackgroundImageFix"/>
<feBlend mode="normal" in="SourceGraphic" in2="BackgroundImageFix" result="shape"/>
<feColorMatrix in="SourceAlpha" type="matrix" values="0 0 0 0 0 0 0 0 0 0 0 0 0 0 0 0 0 0 127 0" result="hardAlpha"/>
<feOffset dy="4"/>
<feGaussianBlur stdDeviation="2"/>
<feComposite in2="hardAlpha" operator="arithmetic" k2="-1" k3="1"/>
<feColorMatrix type="matrix" values="0 0 0 0 0 0 0 0 0 0 0 0 0 0 0 0 0 0 0.25 0"/>
<feBlend mode="normal" in2="shape" result="effect1_innerShadow_441_2042"/>
</filter>
</defs>
</svg>
