<svg width="47" height="48" viewBox="0 0 47 48" fill="none" xmlns="http://www.w3.org/2000/svg">
<path d="M7.83333 8H12.1389C12.8924 8 13.2691 8 13.5409 8.21331C13.8128 8.42661 13.9023 8.79256 14.0815 9.52446L14.9203 12.9511C15.2786 14.4149 15.4578 15.1468 16.0014 15.5734C16.5451 16 17.2986 16 18.8056 16H19.5833" stroke="#F5F5F5" stroke-width="2" stroke-linecap="round"/>
<path d="M35.25 34H14.5066C13.2478 34 12.6184 34 12.3189 33.5872C12.0194 33.1745 12.2147 32.5761 12.6053 31.3794L12.8079 30.7589C13.2423 29.4279 13.4595 28.7624 13.9849 28.3812C14.5103 28 15.2103 28 16.6104 28H27.4167" stroke="#F5F5F5" stroke-width="2" stroke-linecap="round" stroke-linejoin="round"/>
<path d="M32.044 28H17.3667C16.3865 28 15.5507 27.2896 15.3928 26.3221L13.9926 17.7416C13.8436 16.8288 14.5481 16 15.473 16H37.5637C38.3034 16 38.7871 16.7753 38.4618 17.4397L33.8403 26.8794C33.5045 27.5652 32.8076 28 32.044 28Z" stroke="#F5F5F5" stroke-width="2" stroke-linecap="round"/>
<ellipse cx="33.2917" cy="40" rx="1.95833" ry="2" fill="#F5F5F5"/>
<ellipse cx="17.625" cy="40" rx="1.95833" ry="2" fill="#F5F5F5"/>
</svg>
