<svg width="176" height="44" viewBox="0 0 176 44" fill="none" xmlns="http://www.w3.org/2000/svg">
<path d="M165.961 43.2C162.761 43.2 160.341 42.3 158.701 40.5C157.061 38.66 156.241 36.04 156.241 32.64V30.24H162.481V33.12C162.481 35.84 163.621 37.2 165.901 37.2C167.021 37.2 167.861 36.88 168.421 36.24C169.021 35.56 169.321 34.48 169.321 33C169.321 31.24 168.921 29.7 168.121 28.38C167.321 27.02 165.841 25.4 163.681 23.52C160.961 21.12 159.061 18.96 157.981 17.04C156.901 15.08 156.361 12.88 156.361 10.44C156.361 7.12 157.201 4.56 158.881 2.76C160.561 0.92 163.001 0 166.201 0C169.361 0 171.741 0.92 173.341 2.76C174.981 4.56 175.801 7.16 175.801 10.56V12.3H169.561V10.14C169.561 8.7 169.281 7.66 168.721 7.02C168.161 6.34 167.341 6 166.261 6C164.061 6 162.961 7.34 162.961 10.02C162.961 11.54 163.361 12.96 164.161 14.28C165.001 15.6 166.501 17.2 168.661 19.08C171.421 21.48 173.321 23.66 174.361 25.62C175.401 27.58 175.921 29.88 175.921 32.52C175.921 35.96 175.061 38.6 173.341 40.44C171.661 42.28 169.201 43.2 165.961 43.2Z" fill="#F5F5F5"/>
<path d="M135.787 0.599976H153.787V6.59998H142.387V17.7H151.447V23.7H142.387V36.6H153.787V42.6H135.787V0.599976Z" fill="#F5F5F5"/>
<path d="M103.821 0.599976H113.241L117.441 30.66H117.561L121.761 0.599976H131.181V42.6H124.941V10.8H124.821L120.021 42.6H114.501L109.701 10.8H109.581V42.6H103.821V0.599976Z" fill="#F5F5F5"/>
<path d="M85.1594 0.599976H94.0994L100.939 42.6H94.3394L93.1394 34.26V34.38H85.6394L84.4394 42.6H78.3194L85.1594 0.599976ZM92.3594 28.68L89.4194 7.91998H89.2994L86.4194 28.68H92.3594Z" fill="#F5F5F5"/>
<path d="M66.3019 43.2C63.1019 43.2 60.6619 42.3 58.9819 40.5C57.3019 38.66 56.4619 36.04 56.4619 32.64V10.56C56.4619 7.16 57.3019 4.56 58.9819 2.76C60.6619 0.92 63.1019 0 66.3019 0C69.5019 0 71.9419 0.92 73.6219 2.76C75.3019 4.56 76.1419 7.16 76.1419 10.56V14.16H69.9019V10.14C69.9019 7.38 68.7619 6 66.4819 6C64.2019 6 63.0619 7.38 63.0619 10.14V33.12C63.0619 35.84 64.2019 37.2 66.4819 37.2C68.7619 37.2 69.9019 35.84 69.9019 33.12V24.9H66.6019V18.9H76.1419V32.64C76.1419 36.04 75.3019 38.66 73.6219 40.5C71.9419 42.3 69.5019 43.2 66.3019 43.2Z" fill="#F5F5F5"/>
<path d="M23.5975 0.599976H33.6775C36.9575 0.599976 39.4175 1.47998 41.0575 3.23998C42.6975 4.99998 43.5175 7.57998 43.5175 10.98V32.22C43.5175 35.62 42.6975 38.2 41.0575 39.96C39.4175 41.72 36.9575 42.6 33.6775 42.6H23.5975V0.599976ZM33.5575 36.6C34.6375 36.6 35.4575 36.28 36.0175 35.64C36.6175 35 36.9175 33.96 36.9175 32.52V10.68C36.9175 9.23998 36.6175 8.19998 36.0175 7.55998C35.4575 6.91998 34.6375 6.59998 33.5575 6.59998H30.1975V36.6H33.5575Z" fill="#DB0703"/>
<path d="M9.84 43.2C6.64 43.2 4.2 42.3 2.52 40.5C0.84 38.66 0 36.04 0 32.64V10.56C0 7.16 0.84 4.56 2.52 2.76C4.2 0.92 6.64 0 9.84 0C13.04 0 15.48 0.92 17.16 2.76C18.84 4.56 19.68 7.16 19.68 10.56V14.16H13.44V10.14C13.44 7.38 12.3 6 10.02 6C7.74 6 6.6 7.38 6.6 10.14V33.12C6.6 35.84 7.74 37.2 10.02 37.2C12.3 37.2 13.44 35.84 13.44 33.12V24.9H10.14V18.9H19.68V32.64C19.68 36.04 18.84 38.66 17.16 40.5C15.48 42.3 13.04 43.2 9.84 43.2Z" fill="#DB0703"/>
</svg>
