<svg width="31" height="22" viewBox="0 0 31 22" fill="none" xmlns="http://www.w3.org/2000/svg">
<path d="M10.6667 5.66663L11.0202 5.31307L10.6667 4.95952L10.3131 5.31307L10.6667 5.66663ZM10.1667 16.3333C10.1667 16.6094 10.3905 16.8333 10.6667 16.8333C10.9428 16.8333 11.1667 16.6094 11.1667 16.3333L10.1667 16.3333ZM14.5758 8.86863L11.0202 5.31307L10.3131 6.02018L13.8687 9.57573L14.5758 8.86863ZM10.3131 5.31307L6.75756 8.86863L7.46467 9.57573L11.0202 6.02018L10.3131 5.31307ZM10.1667 5.66663L10.1667 16.3333L11.1667 16.3333L11.1667 5.66663L10.1667 5.66663Z" fill="#111111"/>
<path d="M19.5556 16.3333L19.202 16.6869L19.5556 17.0404L19.9091 16.6869L19.5556 16.3333ZM20.0556 5.66665C20.0556 5.3905 19.8317 5.16665 19.5556 5.16665C19.2794 5.16665 19.0556 5.3905 19.0556 5.66665L20.0556 5.66665ZM15.6464 13.1313L19.202 16.6869L19.9091 15.9798L16.3536 12.4242L15.6464 13.1313ZM19.9091 16.6869L23.4647 13.1313L22.7576 12.4242L19.202 15.9798L19.9091 16.6869ZM20.0556 16.3333L20.0556 5.66665L19.0556 5.66665L19.0556 16.3333L20.0556 16.3333Z" fill="#111111"/>
</svg>
